<mxfile host="app.diagrams.net" agent="Mozilla/5.0 (Windows NT 10.0; Win64; x64) AppleWebKit/537.36 (KHTML, like Gecko) Chrome/133.0.0.0 Safari/537.36" version="26.0.14">
  <diagram name="Page-1" id="4vAnjf0BISX08pff6LqN">
    <mxGraphModel dx="1444" dy="764" grid="1" gridSize="10" guides="1" tooltips="1" connect="1" arrows="1" fold="1" page="1" pageScale="1" pageWidth="850" pageHeight="1100" math="0" shadow="0">
      <root>
        <mxCell id="0" />
        <mxCell id="1" parent="0" />
        <mxCell id="u-vzJyjjb-Qi6Dqs59PG-2" value="" style="rounded=0;whiteSpace=wrap;html=1;" parent="1" vertex="1">
          <mxGeometry x="360" y="80" width="620" height="560" as="geometry" />
        </mxCell>
        <mxCell id="u-vzJyjjb-Qi6Dqs59PG-9" style="edgeStyle=orthogonalEdgeStyle;rounded=0;orthogonalLoop=1;jettySize=auto;html=1;entryX=0;entryY=0.5;entryDx=0;entryDy=0;" parent="1" source="u-vzJyjjb-Qi6Dqs59PG-3" target="u-vzJyjjb-Qi6Dqs59PG-8" edge="1">
          <mxGeometry relative="1" as="geometry" />
        </mxCell>
        <mxCell id="u-vzJyjjb-Qi6Dqs59PG-3" value="Admin" style="shape=umlActor;verticalLabelPosition=bottom;verticalAlign=top;html=1;outlineConnect=0;" parent="1" vertex="1">
          <mxGeometry x="310" y="150" width="30" height="60" as="geometry" />
        </mxCell>
        <mxCell id="u-vzJyjjb-Qi6Dqs59PG-6" value="YouClup" style="rounded=1;whiteSpace=wrap;html=1;" parent="1" vertex="1">
          <mxGeometry x="370" y="86" width="140" height="14" as="geometry" />
        </mxCell>
        <mxCell id="u-vzJyjjb-Qi6Dqs59PG-8" value="&lt;span style=&quot;font-family: &amp;quot;Nunito Sans&amp;quot;, sans-serif; font-size: 14px; text-align: start; white-space-collapse: preserve; background-color: rgb(255, 255, 255);&quot;&gt;views page admin&lt;/span&gt;" style="ellipse;whiteSpace=wrap;html=1;" parent="1" vertex="1">
          <mxGeometry x="597" y="145" width="178" height="70" as="geometry" />
        </mxCell>
        <mxCell id="u-vzJyjjb-Qi6Dqs59PG-19" value="&lt;p data-end=&quot;150&quot; data-start=&quot;131&quot;&gt;&lt;strong data-end=&quot;148&quot; data-start=&quot;131&quot;&gt;Créer un club&lt;/strong&gt;&lt;/p&gt;" style="ellipse;whiteSpace=wrap;html=1;" parent="1" vertex="1">
          <mxGeometry x="461" y="260" width="120" height="40" as="geometry" />
        </mxCell>
        <mxCell id="u-vzJyjjb-Qi6Dqs59PG-23" style="edgeStyle=orthogonalEdgeStyle;rounded=0;orthogonalLoop=1;jettySize=auto;html=1;entryX=0.5;entryY=1;entryDx=0;entryDy=0;dashed=1;endArrow=none;startFill=1;startArrow=classic;" parent="1" source="u-vzJyjjb-Qi6Dqs59PG-20" target="u-vzJyjjb-Qi6Dqs59PG-8" edge="1">
          <mxGeometry relative="1" as="geometry" />
        </mxCell>
        <mxCell id="u-vzJyjjb-Qi6Dqs59PG-38" value="extend" style="edgeLabel;html=1;align=center;verticalAlign=middle;resizable=0;points=[];" parent="u-vzJyjjb-Qi6Dqs59PG-23" vertex="1" connectable="0">
          <mxGeometry x="-0.1358" y="-3" relative="1" as="geometry">
            <mxPoint y="1" as="offset" />
          </mxGeometry>
        </mxCell>
        <mxCell id="u-vzJyjjb-Qi6Dqs59PG-20" value="&lt;p data-end=&quot;350&quot; data-start=&quot;322&quot;&gt;&lt;strong data-end=&quot;348&quot; data-start=&quot;322&quot;&gt;Planifier un événement&lt;/strong&gt;&lt;/p&gt;" style="ellipse;whiteSpace=wrap;html=1;" parent="1" vertex="1">
          <mxGeometry x="626" y="260" width="120" height="40" as="geometry" />
        </mxCell>
        <mxCell id="u-vzJyjjb-Qi6Dqs59PG-25" style="rounded=0;orthogonalLoop=1;jettySize=auto;html=1;entryX=1;entryY=1;entryDx=0;entryDy=0;dashed=1;endArrow=none;startFill=1;startArrow=classic;" parent="1" source="u-vzJyjjb-Qi6Dqs59PG-21" target="u-vzJyjjb-Qi6Dqs59PG-8" edge="1">
          <mxGeometry relative="1" as="geometry" />
        </mxCell>
        <mxCell id="u-vzJyjjb-Qi6Dqs59PG-37" value="extend" style="edgeLabel;html=1;align=center;verticalAlign=middle;resizable=0;points=[];" parent="u-vzJyjjb-Qi6Dqs59PG-25" vertex="1" connectable="0">
          <mxGeometry x="-0.1379" y="-2" relative="1" as="geometry">
            <mxPoint as="offset" />
          </mxGeometry>
        </mxCell>
        <mxCell id="u-vzJyjjb-Qi6Dqs59PG-21" value="&lt;p data-end=&quot;565&quot; data-start=&quot;543&quot;&gt;&lt;strong data-end=&quot;563&quot; data-start=&quot;543&quot;&gt;Archiver un club&lt;/strong&gt;&lt;/p&gt;" style="ellipse;whiteSpace=wrap;html=1;" parent="1" vertex="1">
          <mxGeometry x="775" y="260" width="120" height="40" as="geometry" />
        </mxCell>
        <mxCell id="u-vzJyjjb-Qi6Dqs59PG-22" style="rounded=0;orthogonalLoop=1;jettySize=auto;html=1;entryX=0.099;entryY=0.726;entryDx=0;entryDy=0;entryPerimeter=0;dashed=1;startArrow=classic;startFill=1;" parent="1" source="u-vzJyjjb-Qi6Dqs59PG-19" target="u-vzJyjjb-Qi6Dqs59PG-8" edge="1">
          <mxGeometry relative="1" as="geometry" />
        </mxCell>
        <mxCell id="u-vzJyjjb-Qi6Dqs59PG-39" value="extend" style="edgeLabel;html=1;align=center;verticalAlign=middle;resizable=0;points=[];" parent="u-vzJyjjb-Qi6Dqs59PG-22" vertex="1" connectable="0">
          <mxGeometry x="-0.0845" y="2" relative="1" as="geometry">
            <mxPoint as="offset" />
          </mxGeometry>
        </mxCell>
        <mxCell id="u-vzJyjjb-Qi6Dqs59PG-26" style="edgeStyle=orthogonalEdgeStyle;rounded=0;orthogonalLoop=1;jettySize=auto;html=1;entryX=0;entryY=0.5;entryDx=0;entryDy=0;" parent="1" source="u-vzJyjjb-Qi6Dqs59PG-27" target="u-vzJyjjb-Qi6Dqs59PG-28" edge="1">
          <mxGeometry relative="1" as="geometry" />
        </mxCell>
        <mxCell id="u-vzJyjjb-Qi6Dqs59PG-35" value="" style="edgeStyle=orthogonalEdgeStyle;rounded=0;orthogonalLoop=1;jettySize=auto;html=1;" parent="1" source="u-vzJyjjb-Qi6Dqs59PG-27" target="u-vzJyjjb-Qi6Dqs59PG-2" edge="1">
          <mxGeometry relative="1" as="geometry" />
        </mxCell>
        <mxCell id="u-vzJyjjb-Qi6Dqs59PG-27" value="&lt;br&gt;&lt;div&gt;&lt;span style=&quot;font-family: &amp;quot;Nunito Sans&amp;quot;, sans-serif; font-size: 14px; text-align: start; white-space: pre-wrap; background-color: rgb(255, 255, 255);&quot;&gt;étudiant&lt;/span&gt;&lt;/div&gt;" style="shape=umlActor;verticalLabelPosition=bottom;verticalAlign=top;html=1;outlineConnect=0;" parent="1" vertex="1">
          <mxGeometry x="310" y="385" width="30" height="60" as="geometry" />
        </mxCell>
        <mxCell id="u-vzJyjjb-Qi6Dqs59PG-28" value="&lt;span style=&quot;font-family: &amp;quot;Nunito Sans&amp;quot;, sans-serif; font-size: 14px; text-align: start; white-space-collapse: preserve; background-color: rgb(255, 255, 255);&quot;&gt;views page &lt;/span&gt;&lt;span style=&quot;font-family: &amp;quot;Nunito Sans&amp;quot;, sans-serif; font-size: 14px; text-align: start; white-space-collapse: preserve; background-color: rgb(255, 255, 255);&quot;&gt;étudiant&lt;/span&gt;" style="ellipse;whiteSpace=wrap;html=1;" parent="1" vertex="1">
          <mxGeometry x="589" y="380" width="178" height="70" as="geometry" />
        </mxCell>
        <mxCell id="u-vzJyjjb-Qi6Dqs59PG-29" value="&lt;p data-end=&quot;820&quot; data-start=&quot;778&quot;&gt;&lt;strong data-end=&quot;818&quot; data-start=&quot;778&quot;&gt;S’inscrire à un club ou un événement&lt;/strong&gt;&lt;/p&gt;" style="ellipse;whiteSpace=wrap;html=1;" parent="1" vertex="1">
          <mxGeometry x="430" y="490" width="127" height="55" as="geometry" />
        </mxCell>
        <mxCell id="u-vzJyjjb-Qi6Dqs59PG-30" style="edgeStyle=orthogonalEdgeStyle;rounded=0;orthogonalLoop=1;jettySize=auto;html=1;entryX=0.5;entryY=1;entryDx=0;entryDy=0;dashed=1;endArrow=none;startFill=1;startArrow=classic;" parent="1" source="u-vzJyjjb-Qi6Dqs59PG-31" target="u-vzJyjjb-Qi6Dqs59PG-28" edge="1">
          <mxGeometry relative="1" as="geometry" />
        </mxCell>
        <mxCell id="u-vzJyjjb-Qi6Dqs59PG-41" value="extend" style="edgeLabel;html=1;align=center;verticalAlign=middle;resizable=0;points=[];" parent="u-vzJyjjb-Qi6Dqs59PG-30" vertex="1" connectable="0">
          <mxGeometry x="0.1648" relative="1" as="geometry">
            <mxPoint as="offset" />
          </mxGeometry>
        </mxCell>
        <mxCell id="u-vzJyjjb-Qi6Dqs59PG-31" value="&lt;p data-end=&quot;1028&quot; data-start=&quot;984&quot;&gt;&lt;strong data-end=&quot;1026&quot; data-start=&quot;984&quot;&gt;Consulter le calendrier des événements&lt;/strong&gt;&lt;/p&gt;" style="ellipse;whiteSpace=wrap;html=1;" parent="1" vertex="1">
          <mxGeometry x="612" y="495" width="132" height="55" as="geometry" />
        </mxCell>
        <mxCell id="u-vzJyjjb-Qi6Dqs59PG-32" style="rounded=0;orthogonalLoop=1;jettySize=auto;html=1;entryX=1;entryY=1;entryDx=0;entryDy=0;dashed=1;endArrow=none;startFill=1;startArrow=classic;" parent="1" source="u-vzJyjjb-Qi6Dqs59PG-33" target="u-vzJyjjb-Qi6Dqs59PG-28" edge="1">
          <mxGeometry relative="1" as="geometry" />
        </mxCell>
        <mxCell id="u-vzJyjjb-Qi6Dqs59PG-40" value="extend" style="edgeLabel;html=1;align=center;verticalAlign=middle;resizable=0;points=[];" parent="u-vzJyjjb-Qi6Dqs59PG-32" vertex="1" connectable="0">
          <mxGeometry x="0.2108" y="-1" relative="1" as="geometry">
            <mxPoint as="offset" />
          </mxGeometry>
        </mxCell>
        <mxCell id="u-vzJyjjb-Qi6Dqs59PG-33" value="&lt;p data-end=&quot;1229&quot; data-start=&quot;1179&quot;&gt;&lt;strong data-end=&quot;1227&quot; data-start=&quot;1179&quot;&gt;[Bonus] Recevoir des notifications par email&lt;/strong&gt;&lt;/p&gt;" style="ellipse;whiteSpace=wrap;html=1;" parent="1" vertex="1">
          <mxGeometry x="790" y="490" width="163" height="45" as="geometry" />
        </mxCell>
        <mxCell id="u-vzJyjjb-Qi6Dqs59PG-34" style="rounded=0;orthogonalLoop=1;jettySize=auto;html=1;entryX=0.099;entryY=0.726;entryDx=0;entryDy=0;entryPerimeter=0;dashed=1;endArrow=none;startFill=1;startArrow=classic;" parent="1" source="u-vzJyjjb-Qi6Dqs59PG-29" target="u-vzJyjjb-Qi6Dqs59PG-28" edge="1">
          <mxGeometry relative="1" as="geometry" />
        </mxCell>
        <mxCell id="u-vzJyjjb-Qi6Dqs59PG-42" value="extend" style="edgeLabel;html=1;align=center;verticalAlign=middle;resizable=0;points=[];" parent="u-vzJyjjb-Qi6Dqs59PG-34" vertex="1" connectable="0">
          <mxGeometry x="0.1697" y="2" relative="1" as="geometry">
            <mxPoint y="1" as="offset" />
          </mxGeometry>
        </mxCell>
      </root>
    </mxGraphModel>
  </diagram>
</mxfile>
